<svg xmlns="http://www.w3.org/2000/svg" viewBox="0 0 444.29 241.51"><defs><style>.cls-1{fill:#7f47dd;}</style></defs><g id="Layer_4" data-name="Layer 4"><path class="cls-1" d="M224.48,241.51c22.14-.72,42.19-11.5,56.34-32.6,7.3-10.86,13.63-22.37,20.68-33.41,7.6-11.9,17-22.09,29.77-28.66,9.92-5.1,20.6-7.63,31.44-9.79,12-2.39,24.32-4,35.92-7.75,41-13.21,58.26-61.53,35.65-98.14C414.61-.68,370.59-9.75,339.79,11.57c-10.55,7.3-18,17.24-24.94,27.72-6.05,9.1-11.94,18.35-18.6,27-12.3,15.94-29.2,24.22-48.77,27.45a132.25,132.25,0,0,1-61.17-3.79C168,84.31,153.67,73.1,142.48,57.78c-6.25-8.55-12.09-17.4-18.25-26-7-9.76-15.26-18.08-26-23.83a67.26,67.26,0,0,0-84.56,17.9C-9.83,56.22-2.2,101,30,122c9.34,6.09,19.7,9.33,30.42,11.75,9.93,2.25,19.9,4.34,29.75,6.88,20.38,5.28,36.58,16.79,48.52,34.07,6.4,9.26,12.24,18.9,18.35,28.36,7,10.89,15.08,20.78,26.34,27.69C195,237.82,207.57,241.46,224.48,241.51Z"/></g></svg>