<svg xmlns="http://www.w3.org/2000/svg" viewBox="0 0 200.03 193.98"><defs><style>.cls-1{fill:#f4166b;}</style></defs><g id="Layer_4" data-name="Layer 4"><path class="cls-1" d="M196.09,15.43q-2.11,6.67-5.15,14.5C181,55.46,166.37,82.72,157.65,95.41l-13.4,19.51c-8.81,12.82-29.52,37.15-52,58.86Q82.65,183,74.3,190c-1.7.57-3.38,1.09-5,1.54q9.49-7.67,20.79-18.54c22.2-21.39,43.25-46.13,51.79-58.56l13.4-19.51c8.67-12.62,23.23-39.74,33.12-65.17,2.5-6.41,4.52-12.27,6.06-17.51A30.49,30.49,0,0,1,196.09,15.43Z"/><path class="cls-1" d="M191,7.59c-2.45,5.89-5.61,12.68-9.44,20.31-12.2,24.28-28.36,51.32-37.37,64.44L130.6,112.16c-9.11,13.26-28.45,38-47.77,59.61-7.55,8.45-14.36,15.58-20.31,21.29-1.2.23-2.39.41-3.55.54,5.65-5.32,12.74-12.61,21.61-22.53,19.27-21.56,38.54-46.22,47.62-59.43l13.62-19.82c9-13.07,25.1-40,37.26-64.26,4.16-8.29,7.53-15.58,10.06-21.79A19.1,19.1,0,0,1,191,7.59Z"/><path class="cls-1" d="M185.72,3.34c-3.56,6.26-8.08,13.8-13.49,22.52-13.65,22-31,48.29-41.45,63.42L117,109.4c-8,11.58-26.09,37.34-43.51,60.37C66,179.61,59.62,187.72,54.4,194q-.63,0-1.26,0c-.54,0-1.07,0-1.59,0,5.57-6.61,12.52-15.43,20.7-26.28C89.35,145,106.89,120,114.56,108.88l13.83-20.12c10-14.57,26.91-40.1,40.39-61.73,6.05-9.71,11-18,14.83-24.75A21.88,21.88,0,0,1,185.72,3.34Z"/><path class="cls-1" d="M194.43,76.79c-2.88,9.95-6.53,18.86-10.22,25.2h0l-12.67,18.44c-1.19,1.73-2.66,3.67-4.4,5.8l-.1.12c-6.43,7.47-16.85,17.11-29.19,26.76,14.67-13.25,26.07-25.58,31.3-33.2l13-18.9C185.9,95.53,190.29,87,194.43,76.79Z"/><path class="cls-1" d="M179.94,1c-18.77,25-50.2,67.18-62.59,85.21l-14,20.43c-13,19-40.74,63.42-55.33,87-.75-.1-1.47-.23-2.19-.39l-.25-.06c14.6-23.58,42.32-68,55.38-87l14-20.43c12.4-18,43.81-60.17,62.58-85.21.47.08.93.17,1.39.27Z"/><path class="cls-1" d="M200,32.82C192.55,59,179.59,86.1,171.09,98.48l-13.2,19.2c-8.68,12.64-30.82,36.65-56.32,58.1-2,1.71-4,3.37-6,4.95-2.85,1.49-5.7,2.88-8.52,4.16,4.06-3.08,8.25-6.44,12.52-10,25.09-21.1,47.55-45.47,56-57.69L168.69,98c8.53-12.41,21.58-39.79,29-66.08q.84-3,1.54-5.79A61.9,61.9,0,0,1,200,32.82Z"/><path class="cls-1" d="M92.9,30.37C73.46,45.5,57,60.91,50.18,70.88l-15.09,22C25.8,106.35,18.21,133.63,17,157.71a126,126,0,0,0,0,12.9c-.93-1-1.86-2-2.76-3q-.13-4.67.11-9.71c1.19-24.28,8.88-51.86,18.3-65.57l15.09-22C54.91,60,72.21,43.84,92.51,28.19,92.65,28.9,92.78,29.62,92.9,30.37Z"/><path class="cls-1" d="M173.2,0C167.12,6.45,160,14.32,152.28,23.17c-19.81,22.7-39.7,47.36-48.36,60L89.67,103.88C81.13,116.31,67,141.17,55.38,164.34c-5.49,10.91-10,20.51-13,27.9a23.92,23.92,0,0,1-2.27-.92c2.91-7,7-15.84,12.06-25.9,11.84-23.7,26.28-49.22,35.1-62.07l14.25-20.73c9-13,29.4-38.34,49.71-61.54,7-8,13.46-15.12,19.08-21.06C171.3,0,172.27,0,173.2,0Z"/><path class="cls-1" d="M132.7,10.18q-3.63,2.63-7.34,5.46C99,35.73,73,60.25,63.61,73.94L48.74,95.59C39.49,109.05,30.12,136,26.46,159.72a134.11,134.11,0,0,0-1.63,17.48c-.87-.58-1.73-1.2-2.58-1.87a140.38,140.38,0,0,1,1.57-15.56C27.51,135.9,37,108.69,46.34,95.07L61.22,73.42c9.51-13.84,35.68-38.57,62.22-58.79l.7-.53h0C127,12.71,129.87,11.4,132.7,10.18Z"/><path class="cls-1" d="M152.78,2.94c-5.63,4.32-11.67,9.25-18,14.75C110.64,38.48,86.38,63.43,77.05,77L62.38,98.35c-9.17,13.35-20.32,40-26.51,63.38A153.09,153.09,0,0,0,31.37,185a35.62,35.62,0,0,1-2.31-2.72,164.15,164.15,0,0,1,4.2-20.58c6.23-23.5,17.46-50.34,26.72-63.82L74.65,76.49c9.41-13.7,33.83-38.81,58-59.71,5.13-4.43,10.11-8.54,14.86-12.28Q150.22,3.65,152.78,2.94Z"/><path class="cls-1" d="M164.74.45c-6.24,5.45-13.21,12-20.62,19.28-21.9,21.62-44.46,47-53.64,60.35L76,101.11c-9,13.13-21.95,39.47-30.74,62.63A207.27,207.27,0,0,0,37,189.63a27.47,27.47,0,0,1-2.25-1.58,223.91,223.91,0,0,1,8-24.52c8.83-23.25,21.83-49.72,30.92-62.94l14.45-21C97.32,66.12,120,40.62,142,18.93c6.78-6.69,13.19-12.72,19-17.9C162.27.8,163.52.61,164.74.45Z"/><path class="cls-1" d="M82.6,13.72C58.73,32.73,6.89,77,3.81,105A306.34,306.34,0,0,0,2.2,149.39Q1.07,147.2.07,145a307.65,307.65,0,0,1,1.75-40.29C5,76.33,54.79,33.3,79.6,13.49A10.08,10.08,0,0,1,82.6,13.72Z"/><path class="cls-1" d="M88,17.14c-21.39,19.48-67.27,63.94-72.77,91.7a280.86,280.86,0,0,0-5.12,53.45c-.67-.93-1.33-1.89-2-2.85a282.38,282.38,0,0,1,5.14-51c5.68-28.67,51.68-73.17,73.29-92.76A11,11,0,0,1,88,17.14Z"/></g></svg>