<svg xmlns="http://www.w3.org/2000/svg" viewBox="0 0 757.48 89.17"><defs><style>.cls-1{fill:#7f47dd;}</style></defs><g id="Layer_4" data-name="Layer 4"><path class="cls-1" d="M82.88,89.17c8.17-.27,15.58-4.25,20.8-12,2.7-4,5-8.27,7.64-12.34a28.71,28.71,0,0,1,11-10.58,43.39,43.39,0,0,1,11.61-3.62c4.44-.88,9-1.48,13.26-2.86a24.49,24.49,0,0,0,13.16-36.23,24.85,24.85,0,0,0-34.88-7.24c-3.9,2.7-6.64,6.37-9.21,10.24-2.24,3.36-4.41,6.77-6.87,10-4.54,5.88-10.78,8.94-18,10.14a48.91,48.91,0,0,1-22.58-1.4A31,31,0,0,1,52.61,21.34c-2.31-3.16-4.47-6.43-6.74-9.62a28.26,28.26,0,0,0-9.59-8.79A24.81,24.81,0,0,0,5.06,9.54a24.6,24.6,0,0,0,6,35.49,33.88,33.88,0,0,0,11.23,4.34c3.66.83,7.35,1.6,11,2.54A30.49,30.49,0,0,1,51.22,64.48c2.36,3.42,4.52,7,6.77,10.48,2.6,4,5.57,7.67,9.73,10.22A27.6,27.6,0,0,0,82.88,89.17Z"/><path class="cls-1" d="M329.62,67.7a30.83,30.83,0,0,1-30.83-30.83V9a9,9,0,0,0-9-9h0a9,9,0,0,0-9,9V37a48.8,48.8,0,0,0,48.81,48.8h27.92a9,9,0,0,0,9-9h0a9,9,0,0,0-9-9Z"/><path class="cls-1" d="M626.78,67.7A30.83,30.83,0,0,1,596,36.87V9a9,9,0,0,0-9-9h0a9,9,0,0,0-9,9V37a48.8,48.8,0,0,0,48.8,48.8h27.93a9,9,0,0,0,9-9h0a9,9,0,0,0-9-9Z"/><path class="cls-1" d="M249.53,9v34A24.63,24.63,0,0,1,224.9,67.7h-.38a24.63,24.63,0,0,1-24.63-24.63V9a9,9,0,0,0-9-9h0a9,9,0,0,0-9,9V43a42.75,42.75,0,0,0,42.75,42.75h0a43,43,0,0,0,43-43V9a9,9,0,0,0-9-9h0A9,9,0,0,0,249.53,9Z"/><path class="cls-1" d="M627.11,33.85H581.57V15.79h45.54a9,9,0,0,1,9,9h0A9,9,0,0,1,627.11,33.85Z"/><path class="cls-1" d="M523.79,63.28H478.25V45.23h45.54a9,9,0,0,1,9,9h0A9,9,0,0,1,523.79,63.28Z"/><path class="cls-1" d="M496.31,76.73v-34a24.63,24.63,0,0,1,24.63-24.63h.38A24.63,24.63,0,0,1,546,42.69v34a9,9,0,0,0,9,9h0a9,9,0,0,0,9-9v-34A42.75,42.75,0,0,0,521.26,0h0a43,43,0,0,0-43,43V76.73a9,9,0,0,0,9,9h0A9,9,0,0,0,496.31,76.73Z"/><path class="cls-1" d="M757.44,43.53c0,.57,0,1.13,0,1.7v-1.7Z"/><path class="cls-1" d="M711.18,2.35v.14c1.13-.09,2.27-.14,3.42-.14Z"/><path class="cls-1" d="M388.77,42.39c-.27,13.92,11.45,25.31,25.37,25.31H438.4V50.2a9,9,0,0,1,9-9h0a9,9,0,0,1,9,9c0,7.74,0,18.83,0,26.57a9,9,0,0,1-9,9H414.36C390.73,85.76,371,67,370.7,43.35A42.89,42.89,0,0,1,410.16.14c1.13-.09,2.27-.14,3.42-.14h33.86a9,9,0,0,1,9,9V9a9,9,0,0,1-9,9H413.58A24.81,24.81,0,0,0,388.77,42.39Z"/><path class="cls-1" d="M715.12.06a42.88,42.88,0,1,0,40.59,40.59A42.88,42.88,0,0,0,715.12.06Zm-.21,67.56A24.82,24.82,0,1,1,737.63,44.9,24.83,24.83,0,0,1,714.91,67.62Z"/></g></svg>