<svg xmlns="http://www.w3.org/2000/svg" viewBox="0 0 2034.35 1349.4"><defs><style>.cls-1{fill:#e4eaf7;}.cls-2,.cls-5{fill:#99b0d6;}.cls-3{fill:#cdd9f7;}.cls-4{fill:#141928;}.cls-5{stroke:#99b0d6;stroke-miterlimit:10;}</style></defs><g id="Layer_4" data-name="Layer 4"><rect class="cls-1" x="1.68" y="1.68" width="2031" height="1346.04" rx="125.43"/><path class="cls-2" d="M1907.24,1349.4H127.11A127.26,127.26,0,0,1,0,1222.29V127.11A127.25,127.25,0,0,1,127.11,0H1907.24a127.25,127.25,0,0,1,127.11,127.11V1222.29A127.26,127.26,0,0,1,1907.24,1349.4ZM127.11,3.35A123.9,123.9,0,0,0,3.35,127.11V1222.29A123.89,123.89,0,0,0,127.11,1346H1907.24A123.89,123.89,0,0,0,2031,1222.29V127.11A123.9,123.9,0,0,0,1907.24,3.35Z"/><rect class="cls-3" x="86.44" y="85.42" width="1858.72" height="132.77" rx="66.38"/><path class="cls-2" d="M1878.78,218.71H152.83a66.91,66.91,0,1,1,0-133.81h1726a66.91,66.91,0,1,1,0,133.81ZM152.83,86a65.86,65.86,0,1,0,0,131.71h1726a65.86,65.86,0,1,0,0-131.71Z"/><path class="cls-4" d="M227.21,132.91V165.6H223V132.91Z"/><path class="cls-4" d="M246.41,142.12l3.11,11.94c.68,2.62,1.31,5,1.74,7.47h.15c.53-2.38,1.31-4.9,2.09-7.42l3.83-12h3.59l3.64,11.74c.87,2.82,1.55,5.29,2.08,7.67h.15a70.22,70.22,0,0,1,1.79-7.62l3.35-11.79h4.22l-7.57,23.48H264.7l-3.59-11.2a78.74,78.74,0,0,1-2.08-7.72h-.1a67.37,67.37,0,0,1-2.14,7.76L253,165.6h-3.88l-7.08-23.48Z"/><path class="cls-4" d="M293.22,165.6l-.34-3h-.14a8.73,8.73,0,0,1-7.18,3.5c-4.76,0-7.18-3.35-7.18-6.75,0-5.67,5-8.78,14.12-8.73v-.48c0-1.94-.54-5.44-5.34-5.44a11.68,11.68,0,0,0-6.11,1.75l-1-2.81a14.48,14.48,0,0,1,7.71-2.09c7.18,0,8.92,4.9,8.92,9.6V160a33.16,33.16,0,0,0,.39,5.63Zm-.63-12c-4.65-.1-9.94.73-9.94,5.29a3.77,3.77,0,0,0,4,4.07,5.84,5.84,0,0,0,5.68-3.93,4.28,4.28,0,0,0,.24-1.36Z"/><path class="cls-4" d="M303.6,148.48c0-2.43-.05-4.42-.19-6.36h3.78l.25,3.88h.09a8.64,8.64,0,0,1,7.76-4.41c3.25,0,8.3,1.94,8.3,10v14h-4.27V152.07c0-3.79-1.41-6.94-5.43-6.94a6.07,6.07,0,0,0-5.73,4.37,6.23,6.23,0,0,0-.29,2V165.6H303.6Z"/><path class="cls-4" d="M335.47,135.38v6.74h6.12v3.25h-6.12V158c0,2.91.83,4.56,3.2,4.56a9.38,9.38,0,0,0,2.48-.29l.19,3.2a10.37,10.37,0,0,1-3.78.59,5.9,5.9,0,0,1-4.61-1.8c-1.21-1.26-1.65-3.35-1.65-6.11V145.37h-3.64v-3.25h3.64V136.5Z"/><path class="cls-4" d="M369.67,165.6l-.34-3h-.15a8.71,8.71,0,0,1-7.17,3.5c-4.76,0-7.18-3.35-7.18-6.75,0-5.67,5-8.78,14.11-8.73v-.48c0-1.94-.53-5.44-5.33-5.44a11.69,11.69,0,0,0-6.12,1.75l-1-2.81a14.52,14.52,0,0,1,7.72-2.09c7.18,0,8.92,4.9,8.92,9.6V160a33.16,33.16,0,0,0,.39,5.63Zm-.63-12c-4.66-.1-9.94.73-9.94,5.29a3.77,3.77,0,0,0,4,4.07,5.84,5.84,0,0,0,5.68-3.93,4.58,4.58,0,0,0,.24-1.36Z"/><path class="cls-4" d="M390.33,149.79c0-3-.09-5.43-.19-7.67H394l.2,4h.09a9.24,9.24,0,0,1,8.35-4.56c5.67,0,9.94,4.8,9.94,11.93,0,8.44-5.14,12.62-10.67,12.62a8.23,8.23,0,0,1-7.23-3.69h-.1v12.76h-4.22Zm4.22,6.26a9.24,9.24,0,0,0,.2,1.74,6.59,6.59,0,0,0,6.4,5c4.51,0,7.13-3.69,7.13-9.07,0-4.71-2.47-8.73-7-8.73a7.43,7.43,0,0,0-6.75,7Z"/><path class="cls-4" d="M437.58,159.2c0,2.42.05,4.56.19,6.4H434l-.24-3.83h-.1a8.85,8.85,0,0,1-7.76,4.37c-3.69,0-8.1-2-8.1-10.29V142.12h4.27v13c0,4.47,1.36,7.47,5.24,7.47a6.14,6.14,0,0,0,5.62-3.88,6,6,0,0,0,.39-2.18V142.12h4.27Z"/><path class="cls-4" d="M444.08,161.24a11.22,11.22,0,0,0,5.63,1.69c3.1,0,4.56-1.55,4.56-3.49s-1.22-3.15-4.37-4.32c-4.22-1.5-6.21-3.83-6.21-6.64,0-3.79,3.06-6.89,8.1-6.89a11.66,11.66,0,0,1,5.77,1.46l-1.06,3.1a9.16,9.16,0,0,0-4.81-1.36c-2.52,0-3.92,1.46-3.92,3.2,0,1.94,1.4,2.82,4.46,4,4.07,1.55,6.16,3.59,6.16,7.08,0,4.13-3.2,7-8.78,7a13.41,13.41,0,0,1-6.6-1.6Z"/><path class="cls-4" d="M463.87,131.16h4.27v14.65h.1a8,8,0,0,1,3.05-3,8.88,8.88,0,0,1,4.37-1.21c3.15,0,8.2,1.94,8.2,10v14h-4.27V152.12c0-3.79-1.41-7-5.44-7a6.14,6.14,0,0,0-5.72,4.27,5.21,5.21,0,0,0-.29,2V165.6h-4.27Z"/><path class="cls-4" d="M501.08,149.79c0-3-.1-5.43-.2-7.67h3.83l.2,4H505a9.25,9.25,0,0,1,8.35-4.56c5.67,0,9.94,4.8,9.94,11.93,0,8.44-5.14,12.62-10.67,12.62a8.25,8.25,0,0,1-7.23-3.69h-.09v12.76h-4.22Zm4.22,6.26a9.27,9.27,0,0,0,.19,1.74,6.59,6.59,0,0,0,6.4,5c4.51,0,7.13-3.69,7.13-9.07,0-4.71-2.47-8.73-7-8.73a7.38,7.38,0,0,0-6.74,7Z"/><path class="cls-4" d="M548.32,159.2c0,2.42,0,4.56.19,6.4h-3.78l-.24-3.83h-.1a8.83,8.83,0,0,1-7.76,4.37c-3.69,0-8.1-2-8.1-10.29V142.12h4.27v13c0,4.47,1.36,7.47,5.24,7.47a6.14,6.14,0,0,0,5.62-3.88,6,6,0,0,0,.39-2.18V142.12h4.27Z"/><path class="cls-4" d="M555.4,131.16h4.27V165.6H555.4Z"/><path class="cls-4" d="M566.85,131.16h4.27V165.6h-4.27Z"/><path class="cls-4" d="M588.58,131.16h4.27V165.6h-4.27Z"/><path class="cls-4" d="M602.41,154.64c.09,5.77,3.78,8.15,8.05,8.15a15.61,15.61,0,0,0,6.5-1.21l.73,3a19,19,0,0,1-7.81,1.46c-7.23,0-11.55-4.76-11.55-11.84s4.17-12.66,11-12.66c7.67,0,9.7,6.74,9.7,11.06a16.16,16.16,0,0,1-.14,2Zm12.51-3.06c.05-2.71-1.12-6.93-5.92-6.93-4.31,0-6.21,4-6.55,6.93Z"/><path class="cls-4" d="M644.56,142.12c-.1,1.7-.2,3.59-.2,6.46v13.63c0,5.38-1.06,8.68-3.34,10.72s-5.58,2.81-8.54,2.81a15.17,15.17,0,0,1-7.81-1.94l1.07-3.25a13.22,13.22,0,0,0,6.89,1.84c4.36,0,7.56-2.28,7.56-8.2v-2.61h-.1a8.36,8.36,0,0,1-7.46,3.92c-5.83,0-10-4.94-10-11.44,0-8,5.19-12.47,10.58-12.47a7.81,7.81,0,0,1,7.32,4.07h.1l.19-3.54Zm-4.42,9.27a6.24,6.24,0,0,0-6.21-6.45c-4.07,0-7,3.44-7,8.87,0,4.61,2.33,8.44,6.94,8.44a6.22,6.22,0,0,0,5.91-4.36,7.21,7.21,0,0,0,.34-2.28Z"/><path class="cls-4" d="M663.43,142.12l3.1,11.94c.68,2.62,1.31,5,1.75,7.47h.14c.54-2.38,1.31-4.9,2.09-7.42l3.83-12h3.59l3.64,11.74c.87,2.82,1.55,5.29,2.09,7.67h.14a70.4,70.4,0,0,1,1.8-7.62l3.34-11.79h4.22L685.6,165.6h-3.89l-3.58-11.2a76.06,76.06,0,0,1-2.09-7.72h-.1a69.47,69.47,0,0,1-2.13,7.76L670,165.6h-3.88l-7.08-23.48Z"/><path class="cls-4" d="M718.19,153.67c0,8.68-6,12.47-11.69,12.47-6.35,0-11.25-4.66-11.25-12.08,0-7.86,5.14-12.47,11.64-12.47C713.63,141.59,718.19,146.49,718.19,153.67Zm-18.63.24c0,5.14,3,9,7.14,9s7.13-3.83,7.13-9.12c0-4-2-9-7-9S699.56,149.45,699.56,153.91Z"/><path class="cls-4" d="M723.58,149.45c0-2.77-.05-5.14-.2-7.33h3.74l.14,4.61h.2a7,7,0,0,1,6.5-5.14,4.5,4.5,0,0,1,1.21.15v4a6.29,6.29,0,0,0-1.46-.14c-3,0-5.14,2.28-5.72,5.48a11.69,11.69,0,0,0-.19,2V165.6h-4.22Z"/><path class="cls-4" d="M743.85,152.89h.1c.58-.82,1.41-1.84,2.09-2.67l6.88-8.1h5.14L749,151.78l10.34,13.82h-5.19L746,154.35l-2.19,2.42v8.83h-4.22V131.16h4.22Z"/><path class="cls-4" d="M783.63,153.67c0,8.68-6,12.47-11.69,12.47-6.36,0-11.26-4.66-11.26-12.08,0-7.86,5.15-12.47,11.65-12.47C779.07,141.59,783.63,146.49,783.63,153.67Zm-18.63.24c0,5.14,3,9,7.13,9s7.13-3.83,7.13-9.12c0-4-2-9-7-9S765,149.45,765,153.91Z"/><path class="cls-4" d="M808.66,159.2c0,2.42.05,4.56.19,6.4h-3.78l-.24-3.83h-.1a8.85,8.85,0,0,1-7.76,4.37c-3.69,0-8.1-2-8.1-10.29V142.12h4.27v13c0,4.47,1.35,7.47,5.24,7.47a6.14,6.14,0,0,0,5.62-3.88,6.27,6.27,0,0,0,.39-2.18V142.12h4.27Z"/><path class="cls-4" d="M820.88,135.38v6.74H827v3.25h-6.11V158c0,2.91.83,4.56,3.2,4.56a9.38,9.38,0,0,0,2.48-.29l.19,3.2a10.37,10.37,0,0,1-3.78.59,5.9,5.9,0,0,1-4.61-1.8c-1.21-1.26-1.65-3.35-1.65-6.11V145.37h-3.64v-3.25h3.64V136.5Z"/><path class="cls-4" d="M828.89,171.57A71,71,0,0,0,831.8,160l4.75-.48a59.4,59.4,0,0,1-4.61,11.79Z"/><path class="cls-4" d="M856.34,132.91V165.6h-4.22V132.91Z"/><path class="cls-4" d="M873.85,131.16h4.27v14.65h.1a8,8,0,0,1,3-3,8.88,8.88,0,0,1,4.37-1.21c3.15,0,8.2,1.94,8.2,10v14h-4.27V152.12c0-3.79-1.41-7-5.44-7a6.14,6.14,0,0,0-5.72,4.27,5.21,5.21,0,0,0-.29,2V165.6h-4.27Z"/><path class="cls-4" d="M913.77,165.6l-.34-3h-.14a8.73,8.73,0,0,1-7.18,3.5c-4.76,0-7.18-3.35-7.18-6.75,0-5.67,5-8.78,14.12-8.73v-.48c0-1.94-.54-5.44-5.34-5.44a11.68,11.68,0,0,0-6.11,1.75l-1-2.81a14.48,14.48,0,0,1,7.71-2.09c7.18,0,8.92,4.9,8.92,9.6V160a33.16,33.16,0,0,0,.39,5.63Zm-.63-12c-4.65-.1-9.94.73-9.94,5.29a3.77,3.77,0,0,0,4,4.07,5.84,5.84,0,0,0,5.68-3.93,4.28,4.28,0,0,0,.24-1.36Z"/><path class="cls-4" d="M925.41,142.12l4.61,13.2a57.71,57.71,0,0,1,1.89,6h.15c.53-1.94,1.21-3.88,2-6l4.56-13.2h4.46l-9.22,23.48h-4.07l-8.93-23.48Z"/><path class="cls-4" d="M949,154.64c.1,5.77,3.78,8.15,8,8.15a15.57,15.57,0,0,0,6.5-1.21l.73,3a19,19,0,0,1-7.81,1.46c-7.23,0-11.54-4.76-11.54-11.84s4.17-12.66,11-12.66c7.66,0,9.7,6.74,9.7,11.06a15.76,15.76,0,0,1-.15,2Zm12.51-3.06c0-2.71-1.11-6.93-5.91-6.93-4.32,0-6.21,4-6.55,6.93Z"/><path class="cls-4" d="M1001.47,131.16v28.38c0,2.08,0,4.46.2,6.06h-3.83l-.2-4.07h-.1a8.68,8.68,0,0,1-8,4.61c-5.67,0-10-4.81-10-11.94,0-7.81,4.8-12.61,10.53-12.61,3.59,0,6,1.7,7.08,3.59h.1v-14Zm-4.26,20.52a7.42,7.42,0,0,0-.2-1.8,6.28,6.28,0,0,0-6.16-4.94c-4.41,0-7,3.88-7,9.07,0,4.75,2.33,8.68,6.93,8.68A6.41,6.41,0,0,0,997,157.6a7.24,7.24,0,0,0,.2-1.85Z"/><path class="cls-4" d="M1028.2,159.2c0,2.42,0,4.56.2,6.4h-3.79l-.24-3.83h-.1a8.83,8.83,0,0,1-7.76,4.37c-3.69,0-8.1-2-8.1-10.29V142.12h4.27v13c0,4.47,1.36,7.47,5.24,7.47a6.17,6.17,0,0,0,5.63-3.88,6.27,6.27,0,0,0,.38-2.18V142.12h4.27Z"/><path class="cls-4" d="M1035.28,148.48c0-2.43,0-4.42-.19-6.36h3.73l.2,3.79h.14a8.11,8.11,0,0,1,7.38-4.32,6.93,6.93,0,0,1,6.64,4.71h.1a9.75,9.75,0,0,1,2.62-3.06,8,8,0,0,1,5.19-1.65c3.1,0,7.71,2,7.71,10.19V165.6h-4.17V152.31c0-4.51-1.65-7.23-5.09-7.23a5.54,5.54,0,0,0-5,3.88,7.22,7.22,0,0,0-.34,2.14v14.5H1050V151.53c0-3.73-1.65-6.45-4.9-6.45a5.82,5.82,0,0,0-5.28,4.27,5.73,5.73,0,0,0-.34,2.09V165.6h-4.18Z"/><path class="cls-4" d="M1075.54,165.6c.1-1.6.2-4,.2-6.06V131.16H1080v14.75h.1a8.74,8.74,0,0,1,8-4.32c5.82,0,9.94,4.85,9.9,12,0,8.39-5.29,12.57-10.53,12.57a8.36,8.36,0,0,1-7.86-4.42h-.15l-.19,3.88Zm4.42-9.41a8.53,8.53,0,0,0,.19,1.55,6.6,6.6,0,0,0,6.41,5c4.46,0,7.13-3.64,7.13-9,0-4.71-2.43-8.73-7-8.73a6.79,6.79,0,0,0-6.5,5.23A8.31,8.31,0,0,0,1080,152Z"/><path class="cls-4" d="M1103.14,165.6c.1-1.6.2-4,.2-6.06V131.16h4.22v14.75h.1a8.74,8.74,0,0,1,8-4.32c5.82,0,9.94,4.85,9.9,12,0,8.39-5.29,12.57-10.53,12.57a8.36,8.36,0,0,1-7.86-4.42H1107l-.2,3.88Zm4.42-9.41a8.53,8.53,0,0,0,.19,1.55,6.6,6.6,0,0,0,6.41,5c4.46,0,7.13-3.64,7.13-9,0-4.71-2.43-8.73-7-8.73a6.79,6.79,0,0,0-6.5,5.23,9,9,0,0,0-.24,1.75Z"/><path class="cls-4" d="M1133.32,154.64c.09,5.77,3.78,8.15,8,8.15a15.61,15.61,0,0,0,6.5-1.21l.73,3a19,19,0,0,1-7.81,1.46c-7.23,0-11.55-4.76-11.55-11.84s4.17-12.66,11-12.66c7.67,0,9.7,6.74,9.7,11.06a16.16,16.16,0,0,1-.14,2Zm12.51-3.06c.05-2.71-1.11-6.93-5.92-6.93-4.31,0-6.21,4-6.54,6.93Z"/><path class="cls-4" d="M1155.24,131.16h4.27V165.6h-4.27Z"/><path class="cls-4" d="M1166.69,131.16H1171V165.6h-4.27Z"/><path class="cls-4" d="M1177.55,161.24a11.25,11.25,0,0,0,5.63,1.69c3.11,0,4.56-1.55,4.56-3.49s-1.21-3.15-4.36-4.32c-4.23-1.5-6.21-3.83-6.21-6.64,0-3.79,3-6.89,8.1-6.89a11.69,11.69,0,0,1,5.77,1.46l-1.07,3.1a9.15,9.15,0,0,0-4.8-1.36c-2.52,0-3.93,1.46-3.93,3.2,0,1.94,1.41,2.82,4.46,4,4.08,1.55,6.16,3.59,6.16,7.08,0,4.13-3.2,7-8.78,7a13.37,13.37,0,0,1-6.59-1.6Z"/><path class="cls-4" d="M1220.63,165.6l-.34-3h-.15a8.73,8.73,0,0,1-7.18,3.5c-4.75,0-7.17-3.35-7.17-6.75,0-5.67,5-8.78,14.11-8.73v-.48c0-1.94-.53-5.44-5.34-5.44a11.68,11.68,0,0,0-6.11,1.75l-1-2.81a14.52,14.52,0,0,1,7.72-2.09c7.17,0,8.92,4.9,8.92,9.6V160a33.16,33.16,0,0,0,.39,5.63Zm-.63-12c-4.66-.1-10,.73-10,5.29a3.78,3.78,0,0,0,4,4.07,5.82,5.82,0,0,0,5.67-3.93,4.3,4.3,0,0,0,.25-1.36Z"/><path class="cls-4" d="M1231,148.48c0-2.43,0-4.42-.2-6.36h3.79l.24,3.88h.1a8.63,8.63,0,0,1,7.76-4.41c3.25,0,8.29,1.94,8.29,10v14h-4.26V152.07c0-3.79-1.41-6.94-5.44-6.94a6.07,6.07,0,0,0-5.72,4.37,6.23,6.23,0,0,0-.29,2V165.6H1231Z"/><path class="cls-4" d="M1278.21,131.16v28.38c0,2.08,0,4.46.19,6.06h-3.83l-.19-4.07h-.1a8.69,8.69,0,0,1-8,4.61c-5.67,0-10-4.81-10-11.94,0-7.81,4.81-12.61,10.53-12.61,3.59,0,6,1.7,7.08,3.59h.1v-14Zm-4.27,20.52a7.42,7.42,0,0,0-.2-1.8,6.27,6.27,0,0,0-6.16-4.94c-4.41,0-7,3.88-7,9.07,0,4.75,2.33,8.68,6.94,8.68a6.4,6.4,0,0,0,6.25-5.09,7.24,7.24,0,0,0,.2-1.85Z"/><path class="cls-4" d="M1308.57,165.6l-.34-3h-.14a8.74,8.74,0,0,1-7.18,3.5c-4.76,0-7.18-3.35-7.18-6.75,0-5.67,5-8.78,14.11-8.73v-.48c0-1.94-.53-5.44-5.33-5.44a11.68,11.68,0,0,0-6.11,1.75l-1-2.81a14.48,14.48,0,0,1,7.71-2.09c7.18,0,8.92,4.9,8.92,9.6V160a33.16,33.16,0,0,0,.39,5.63Zm-.63-12c-4.66-.1-9.94.73-9.94,5.29a3.77,3.77,0,0,0,4,4.07,5.84,5.84,0,0,0,5.68-3.93,4.58,4.58,0,0,0,.24-1.36Z"/><path class="cls-4" d="M1329.24,149.79c0-3-.1-5.43-.2-7.67h3.83l.2,4h.09a9.25,9.25,0,0,1,8.35-4.56c5.67,0,9.94,4.8,9.94,11.93,0,8.44-5.14,12.62-10.67,12.62a8.25,8.25,0,0,1-7.23-3.69h-.09v12.76h-4.22Zm4.22,6.26a9.27,9.27,0,0,0,.19,1.74,6.59,6.59,0,0,0,6.4,5c4.51,0,7.13-3.69,7.13-9.07,0-4.71-2.47-8.73-7-8.73a7.38,7.38,0,0,0-6.74,7Z"/><path class="cls-4" d="M1376.48,159.2c0,2.42,0,4.56.2,6.4h-3.79l-.24-3.83h-.1a8.83,8.83,0,0,1-7.76,4.37c-3.69,0-8.1-2-8.1-10.29V142.12H1361v13c0,4.47,1.36,7.47,5.24,7.47a6.17,6.17,0,0,0,5.63-3.88,6.27,6.27,0,0,0,.38-2.18V142.12h4.27Z"/><path class="cls-4" d="M1383.56,131.16h4.27V165.6h-4.27Z"/><path class="cls-4" d="M1395,131.16h4.27V165.6H1395Z"/><path class="cls-4" d="M1436.39,159.2c0,2.42,0,4.56.19,6.4h-3.78l-.25-3.83h-.09a8.85,8.85,0,0,1-7.76,4.37c-3.69,0-8.1-2-8.1-10.29V142.12h4.26v13c0,4.47,1.36,7.47,5.24,7.47a6.17,6.17,0,0,0,5.63-3.88,6.27,6.27,0,0,0,.39-2.18V142.12h4.27Z"/><path class="cls-4" d="M1443.47,149.79c0-3-.1-5.43-.2-7.67h3.84l.19,4h.1a9.22,9.22,0,0,1,8.34-4.56c5.68,0,10,4.8,10,11.93,0,8.44-5.15,12.62-10.68,12.62a8.22,8.22,0,0,1-7.22-3.69h-.1v12.76h-4.22Zm4.22,6.26a10.18,10.18,0,0,0,.19,1.74,6.6,6.6,0,0,0,6.41,5c4.51,0,7.13-3.69,7.13-9.07,0-4.71-2.48-8.73-7-8.73a6.8,6.8,0,0,0-6.45,5.28,7.28,7.28,0,0,0-.29,1.75Z"/><path class="cls-4" d="M1481.16,165.6c.1-1.6.19-4,.19-6.06V131.16h4.22v14.75h.1a8.74,8.74,0,0,1,8-4.32c5.82,0,9.95,4.85,9.9,12,0,8.39-5.29,12.57-10.53,12.57a8.37,8.37,0,0,1-7.86-4.42H1485l-.2,3.88Zm4.41-9.41a7.73,7.73,0,0,0,.2,1.55,6.59,6.59,0,0,0,6.4,5c4.46,0,7.13-3.64,7.13-9,0-4.71-2.42-8.73-7-8.73a6.79,6.79,0,0,0-6.5,5.23,8.25,8.25,0,0,0-.25,1.75Z"/><path class="cls-4" d="M1522,165.6l-.34-3h-.14a8.74,8.74,0,0,1-7.18,3.5c-4.76,0-7.18-3.35-7.18-6.75,0-5.67,5-8.78,14.11-8.73v-.48c0-1.94-.53-5.44-5.33-5.44a11.68,11.68,0,0,0-6.11,1.75l-1-2.81a14.48,14.48,0,0,1,7.71-2.09c7.18,0,8.92,4.9,8.92,9.6V160a33.16,33.16,0,0,0,.39,5.63Zm-.63-12c-4.65-.1-9.94.73-9.94,5.29a3.77,3.77,0,0,0,4,4.07,5.84,5.84,0,0,0,5.68-3.93,4.58,4.58,0,0,0,.24-1.36Z"/><path class="cls-4" d="M1532.33,149.45c0-2.77,0-5.14-.19-7.33h3.73l.15,4.61h.19a7.05,7.05,0,0,1,6.5-5.14,4.53,4.53,0,0,1,1.22.15v4a6.34,6.34,0,0,0-1.46-.14c-3,0-5.14,2.28-5.72,5.48a11.64,11.64,0,0,0-.2,2V165.6h-4.22Z"/><path class="cls-4" d="M1571.48,165.6l-.34-3H1571a8.73,8.73,0,0,1-7.18,3.5c-4.75,0-7.18-3.35-7.18-6.75,0-5.67,5-8.78,14.12-8.73v-.48c0-1.94-.53-5.44-5.34-5.44a11.68,11.68,0,0,0-6.11,1.75l-1-2.81a14.52,14.52,0,0,1,7.72-2.09c7.17,0,8.92,4.9,8.92,9.6V160a33.16,33.16,0,0,0,.39,5.63Zm-.63-12c-4.66-.1-9.95.73-9.95,5.29a3.78,3.78,0,0,0,4,4.07,5.82,5.82,0,0,0,5.67-3.93,4.3,4.3,0,0,0,.25-1.36Z"/><path class="cls-4" d="M1583.12,142.12l4.61,13.2a63,63,0,0,1,1.89,6h.15c.53-1.94,1.21-3.88,2-6l4.56-13.2h4.47l-9.22,23.48h-4.07l-8.93-23.48Z"/><path class="cls-4" d="M1617.61,165.6l-.34-3h-.15a8.73,8.73,0,0,1-7.18,3.5c-4.75,0-7.17-3.35-7.17-6.75,0-5.67,5-8.78,14.11-8.73v-.48c0-1.94-.53-5.44-5.33-5.44a11.69,11.69,0,0,0-6.12,1.75l-1-2.81a14.52,14.52,0,0,1,7.72-2.09c7.17,0,8.92,4.9,8.92,9.6V160a33.16,33.16,0,0,0,.39,5.63Zm-.63-12c-4.66-.1-10,.73-10,5.29a3.78,3.78,0,0,0,4,4.07,5.84,5.84,0,0,0,5.68-3.93,4.58,4.58,0,0,0,.24-1.36Z"/><path class="cls-4" d="M1632.74,135.53a2.64,2.64,0,0,1-5.28,0,2.59,2.59,0,0,1,2.66-2.67A2.53,2.53,0,0,1,1632.74,135.53ZM1628,165.6V142.12h4.27V165.6Z"/><path class="cls-4" d="M1639.34,131.16h4.27V165.6h-4.27Z"/><path class="cls-4" d="M1663.79,165.6l-.34-3h-.15a8.73,8.73,0,0,1-7.18,3.5c-4.75,0-7.18-3.35-7.18-6.75,0-5.67,5-8.78,14.12-8.73v-.48c0-1.94-.53-5.44-5.34-5.44a11.68,11.68,0,0,0-6.11,1.75l-1-2.81a14.5,14.5,0,0,1,7.71-2.09c7.18,0,8.93,4.9,8.93,9.6V160a33.16,33.16,0,0,0,.39,5.63Zm-.63-12c-4.66-.1-10,.73-10,5.29a3.78,3.78,0,0,0,4,4.07,5.82,5.82,0,0,0,5.67-3.93,4.3,4.3,0,0,0,.25-1.36Z"/><path class="cls-4" d="M1674,165.6c.1-1.6.2-4,.2-6.06V131.16h4.22v14.75h.09a8.76,8.76,0,0,1,8-4.32c5.82,0,9.94,4.85,9.89,12,0,8.39-5.28,12.57-10.52,12.57a8.36,8.36,0,0,1-7.86-4.42h-.15l-.19,3.88Zm4.42-9.41a7.73,7.73,0,0,0,.19,1.55,6.59,6.59,0,0,0,6.4,5c4.47,0,7.14-3.64,7.14-9,0-4.71-2.43-8.73-7-8.73a6.79,6.79,0,0,0-6.5,5.23,8.31,8.31,0,0,0-.24,1.75Z"/><path class="cls-4" d="M1701.77,131.16H1706V165.6h-4.27Z"/><path class="cls-4" d="M1715.59,154.64c.1,5.77,3.79,8.15,8.05,8.15a15.57,15.57,0,0,0,6.5-1.21l.73,3a19,19,0,0,1-7.81,1.46c-7.23,0-11.54-4.76-11.54-11.84s4.17-12.66,11-12.66c7.66,0,9.7,6.74,9.7,11.06a15.76,15.76,0,0,1-.15,2Zm12.52-3.06c.05-2.71-1.12-6.93-5.92-6.93-4.32,0-6.21,4-6.55,6.93Z"/><path class="cls-4" d="M1769.05,153.67c0,8.68-6,12.47-11.69,12.47-6.36,0-11.26-4.66-11.26-12.08,0-7.86,5.15-12.47,11.65-12.47C1764.49,141.59,1769.05,146.49,1769.05,153.67Zm-18.63.24c0,5.14,3,9,7.13,9s7.13-3.83,7.13-9.12c0-4-2-9-7-9S1750.42,149.45,1750.42,153.91Z"/><path class="cls-4" d="M1774.43,148.48c0-2.43,0-4.42-.19-6.36H1778l.24,3.88h.1a8.63,8.63,0,0,1,7.76-4.41c3.25,0,8.3,1.94,8.3,10v14h-4.27V152.07c0-3.79-1.41-6.94-5.44-6.94a6.07,6.07,0,0,0-5.72,4.37,6.23,6.23,0,0,0-.29,2V165.6h-4.27Z"/><path class="cls-4" d="M1801.35,131.16h4.27V165.6h-4.27Z"/><path class="cls-4" d="M1814.35,142.12l5.14,13.88c.54,1.55,1.12,3.39,1.51,4.8h.09c.44-1.41.93-3.2,1.51-4.9l4.65-13.78h4.52l-6.41,16.74c-3,8-5.14,12.17-8,14.7a11.5,11.5,0,0,1-5.24,2.76l-1.07-3.59a11.38,11.38,0,0,0,3.74-2.08,13,13,0,0,0,3.59-4.76,3.07,3.07,0,0,0,.34-1,3.81,3.81,0,0,0-.29-1.11l-8.68-21.64Z"/><circle class="cls-5" cx="152.33" cy="154.13" r="20.94"/></g></svg>